<!DOCTYPE svg PUBLIC "-//W3C//DTD SVG 1.1//EN" "http://www.w3.org/Graphics/SVG/1.1/DTD/svg11.dtd">
<!-- Uploaded to: SVG Repo, www.svgrepo.com, Transformed by: SVG Repo Mixer Tools -->
<svg width="800px" height="800px" viewBox="-6 -6 36.00 36.00" xmlns="http://www.w3.org/2000/svg" fill="none" stroke="#ffffff">
<g id="SVGRepo_bgCarrier" stroke-width="0" transform="translate(0,0), scale(1)">
<rect x="-6" y="-6" width="36.00" height="36.00" rx="18" fill="#e42626" strokewidth="0"/>
</g>
<g id="SVGRepo_tracerCarrier" stroke-linecap="round" stroke-linejoin="round"/>
<g id="SVGRepo_iconCarrier">
<path stroke="#ffffff" stroke-linecap="round" stroke-linejoin="round" stroke-width="2" d="m10 6 2 5m0 0h3a2 2 0 0 0 2-2V5a2 2 0 0 0-2-2H9a2 2 0 0 0-2 2v4a2 2 0 0 0 2 2h3z"/>
<path fill="#ffffff" fill-rule="evenodd" d="M2 7a3 3 0 0 1 3-3h2a1 1 0 0 1 1 1v4a1 1 0 0 0 1 1h6a1 1 0 0 0 1-1V5a1 1 0 0 1 1-1h2a3 3 0 0 1 3 3v12a3 3 0 0 1-3 3H5a3 3 0 0 1-3-3V7zm8 9a1 1 0 1 0 0 2h4a1 1 0 1 0 0-2h-4z" clip-rule="evenodd"/>
</g>
</svg>